<?xml version="1.0" standalone="no"?>
<!DOCTYPE svg PUBLIC "-//W3C//DTD SVG 20010904//EN"
 "http://www.w3.org/TR/2001/REC-SVG-20010904/DTD/svg10.dtd">
<svg version="1.0" xmlns="http://www.w3.org/2000/svg"
 width="2000.000000pt" height="2000.000000pt" viewBox="0 0 2000.000000 2000.000000"
 preserveAspectRatio="xMidYMid meet">
<metadata>
Created by potrace 1.11, written by Peter Selinger 2001-2013
</metadata>
<g transform="translate(0.000000,2000.000000) scale(0.100000,-0.100000)"
fill="#000000" stroke="none">
<path d="M9499 17276 c-2 -2 -62 -7 -134 -10 -71 -4 -148 -8 -170 -10 -22 -2
-76 -7 -120 -10 -44 -4 -91 -9 -105 -11 -14 -2 -52 -6 -85 -10 -120 -12 -370
-46 -450 -61 -11 -2 -85 -15 -164 -30 -376 -66 -780 -171 -1186 -306 -103 -35
-425 -153 -470 -173 -16 -8 -70 -30 -120 -50 -334 -136 -786 -366 -1155 -587
-383 -230 -892 -598 -1210 -877 -41 -36 -86 -76 -100 -88 -14 -12 -54 -48 -90
-81 -36 -33 -81 -74 -100 -92 -173 -158 -502 -501 -681 -710 -148 -172 -422
-518 -468 -590 -8 -14 -18 -27 -21 -30 -14 -12 -235 -337 -323 -476 -191 -300
-440 -757 -584 -1069 -56 -121 -164 -368 -167 -380 -1 -5 -10 -28 -20 -50 -71
-164 -238 -644 -311 -895 -93 -322 -196 -755 -229 -965 -3 -16 -16 -97 -30
-180 -14 -82 -28 -170 -31 -195 -3 -25 -8 -56 -10 -70 -2 -14 -7 -47 -10 -75
-3 -27 -8 -68 -11 -90 -7 -52 -12 -103 -19 -195 -3 -41 -8 -82 -10 -90 -2 -8
-7 -64 -11 -125 -3 -60 -8 -128 -10 -150 -2 -34 -12 -310 -18 -508 0 -33 3
-61 7 -64 7 -4 359 -7 427 -4 12 1 15 19 16 104 1 122 13 446 19 502 2 22 6
78 9 125 10 141 48 492 62 565 l5 30 717 -1 c395 0 722 -3 727 -6 7 -4 10
-216 10 -582 0 -317 2 -576 5 -577 3 0 13 -2 24 -4 43 -8 42 -20 41 576 0 314
3 576 7 582 4 7 241 11 792 11 690 1 785 -1 788 -14 2 -8 3 -270 3 -582 0
-381 3 -569 10 -571 5 -3 24 -4 40 -3 l30 2 0 582 c0 510 2 582 15 583 61 4
1514 3 1519 -1 5 -3 8 -261 7 -573 -1 -313 2 -574 6 -580 9 -15 76 -17 81 -3
1 6 2 268 2 583 l-1 571 26 4 c14 2 333 3 710 2 l685 0 -1 -582 c0 -395 4
-582 11 -583 5 0 24 -2 41 -4 28 -3 32 0 35 23 2 15 4 277 3 582 0 305 3 557
7 560 5 4 1293 5 1334 1 7 -1 10 -195 10 -568 -1 -313 1 -575 3 -584 2 -11 15
-16 43 -15 21 0 40 5 40 11 1 5 2 266 3 578 1 412 4 570 13 575 8 5 1282 8
1363 3 14 -1 16 -66 16 -583 l0 -583 44 0 45 0 1 578 c1 318 4 581 8 584 4 4
307 7 674 7 l667 0 5 -585 5 -584 40 0 40 0 5 585 5 584 695 1 c382 0 700 -1
707 -3 8 -3 11 -152 11 -578 0 -316 3 -578 7 -582 11 -12 74 -10 77 2 3 6 4
269 4 584 -1 503 1 572 14 573 67 4 1404 3 1411 -2 5 -3 10 -257 11 -584 l3
-580 38 -1 c35 -2 37 0 38 30 0 17 1 279 2 583 0 551 0 551 21 555 12 1 354 3
761 2 l740 0 1 -570 c1 -313 2 -577 3 -586 1 -12 9 -16 34 -14 l32 3 2 569 c1
313 2 576 2 584 1 13 94 15 776 14 426 0 777 -2 779 -5 3 -2 8 -27 11 -54 4
-28 8 -61 10 -75 4 -25 12 -91 20 -165 2 -22 7 -65 11 -95 3 -30 7 -73 9 -95
3 -41 13 -167 20 -265 2 -30 7 -170 11 -310 4 -140 8 -257 10 -259 3 -3 322
-4 417 -2 l27 1 -5 228 c-5 228 -10 339 -20 442 -2 30 -7 93 -10 140 -3 47 -8
101 -10 120 -2 19 -7 64 -10 100 -4 36 -8 76 -10 90 -2 14 -7 50 -10 80 -3 30
-8 62 -10 70 -2 8 -7 40 -10 70 -6 57 -22 162 -31 215 -3 17 -7 39 -9 50 -1
11 -5 36 -9 55 -3 19 -8 46 -10 60 -3 14 -12 63 -21 110 -9 47 -19 96 -21 110
-22 119 -126 546 -175 715 -90 309 -277 847 -349 1000 -5 11 -30 70 -56 130
-64 154 -64 152 -199 430 -123 251 -275 533 -366 678 -27 43 -49 79 -49 82 0
26 -428 651 -547 800 -5 6 -24 30 -43 55 -54 69 -52 67 -161 200 -121 148
-212 254 -369 425 -71 78 -428 434 -506 505 -33 30 -93 84 -134 120 -41 36
-77 67 -80 70 -9 10 -185 157 -265 221 -93 75 -369 283 -453 341 -207 142
-688 448 -706 448 -2 0 -43 23 -92 52 -130 75 -554 285 -739 366 -520 227
-1052 402 -1590 522 -144 32 -262 56 -315 65 -19 3 -62 10 -95 16 -68 12 -71
13 -175 29 -93 14 -113 17 -170 25 -25 3 -61 8 -80 10 -19 3 -57 7 -85 10 -27
2 -70 7 -95 10 -53 6 -114 12 -228 20 -46 4 -109 9 -140 11 -67 6 -878 14
-883 10z m631 -451 c200 -5 276 -8 400 -20 19 -2 40 -4 45 -4 7 -1 11 -220 11
-680 l-1 -679 -692 0 c-628 1 -692 2 -695 17 -5 24 -3 1339 2 1344 8 8 155 16
415 23 138 4 251 8 253 9 2 2 11 1 20 -1 9 -1 118 -5 242 -9z m-1025 -706 l0
-677 -676 0 -675 0 0 559 0 559 40 11 c23 5 49 12 58 15 9 3 25 7 35 9 10 2
70 16 133 30 134 31 105 25 300 63 167 33 463 77 655 98 33 3 61 7 62 8 1 0
16 1 35 1 l33 0 0 -676z m1645 667 c30 -4 66 -9 80 -11 14 -2 50 -7 81 -10 31
-3 65 -7 75 -9 11 -2 42 -7 69 -10 28 -4 76 -11 108 -17 32 -6 72 -12 89 -14
75 -10 458 -90 608 -128 l165 -42 0 -550 0 -550 -668 -1 c-446 -1 -670 2 -674
9 -3 6 -6 303 -5 661 1 747 0 689 10 683 4 -3 32 -8 62 -11z m-3086 -798 c-1
-293 -2 -536 -3 -539 0 -4 -320 -6 -709 -6 l-708 0 0 278 0 277 81 41 c249
124 682 295 1010 398 265 84 320 100 325 92 3 -4 4 -247 4 -541z m4616 482
c304 -94 720 -250 945 -355 50 -23 119 -55 155 -71 36 -16 86 -40 111 -54 l47
-25 -2 -260 -1 -260 -707 -1 -708 -2 0 539 c0 426 3 538 13 534 6 -2 73 -23
147 -45z m-6123 -774 l-1 -253 -444 0 -444 0 111 71 c117 75 148 94 222 137
25 14 63 37 85 51 89 56 448 248 464 248 4 0 7 -114 7 -254z m7531 196 c139
-69 495 -277 662 -386 108 -70 134 -64 -302 -64 -216 0 -400 1 -408 4 -13 3
-15 38 -15 239 0 129 1 235 3 235 2 0 29 -13 60 -28z m-7537 -532 c3 0 6 -317
6 -705 l0 -705 -771 2 -770 3 -1 500 0 500 28 27 c31 30 243 192 397 304 84
60 102 69 150 74 40 4 915 4 961 0z m1507 -5 c3 -3 6 -320 6 -703 l1 -697
-710 0 -710 0 0 702 -1 702 26 3 c51 6 1382 0 1388 -7z m1435 2 c9 -3 12 -157
12 -703 l0 -699 -676 -3 -676 -2 1 702 c0 679 0 703 18 708 24 6 1304 4 1321
-3z m1472 3 c21 0 21 -3 21 -705 l0 -705 -693 0 c-547 0 -693 3 -694 13 -5 53
-3 1393 2 1397 5 4 1217 4 1364 0z m1443 0 l22 0 0 -705 0 -705 -676 2 -677 3
1 680 c0 374 1 690 1 702 1 16 8 22 29 25 20 2 1183 1 1300 -2z m1508 1 l22
-1 0 -705 0 -705 -709 0 -709 0 0 704 0 705 28 3 c20 2 1261 1 1368 -1z m1024
-1 c28 0 66 -23 195 -118 88 -64 197 -146 243 -181 l82 -64 0 -524 0 -523
-718 0 -717 0 0 702 0 702 23 6 c18 4 733 4 892 0z m661 -480 c84 -68 256
-220 373 -330 173 -163 524 -524 564 -581 13 -18 -1 -19 -491 -19 l-503 0 0
485 c0 267 3 484 7 483 3 -2 26 -19 50 -38z m-10667 -462 c-1 -249 -2 -456 -3
-460 0 -5 -217 -8 -481 -8 -413 0 -480 2 -473 14 28 51 492 525 663 677 183
164 284 248 290 240 3 -5 4 -213 4 -463z m1 -1246 c0 -376 -2 -687 -5 -691 -6
-9 -1573 -9 -1580 0 -3 4 -5 160 -4 347 l0 339 74 104 c100 140 263 350 372
481 l90 107 526 -2 527 -2 0 -683z m1621 -5 l-1 -692 -760 -1 c-418 0 -764 3
-770 7 -7 5 -10 243 -9 686 1 373 2 681 3 685 1 4 347 8 769 8 l769 -1 -1
-692z m1506 675 c2 -9 3 -321 3 -692 l-1 -675 -709 0 -710 0 0 692 -1 693 707
0 c664 0 707 -1 711 -18z m1443 -674 l0 -693 -675 0 -675 0 -1 685 c-1 377 1
688 3 693 2 4 307 7 676 7 l672 0 0 -692z m1480 -1 l0 -692 -692 0 c-471 -1
-693 3 -694 10 -1 5 -2 317 -3 692 l-1 683 695 0 696 0 -1 -693z m1443 1 l-3
-693 -672 0 c-599 -1 -673 1 -674 15 -1 21 -1 1319 0 1347 l1 22 675 1 675 0
-2 -692z m1510 14 c1 -372 -1 -684 -4 -692 -4 -14 -82 -16 -709 -16 l-705 0 0
693 0 693 709 0 709 -1 0 -677z m1520 -15 l-3 -692 -712 0 c-392 -1 -714 2
-714 5 -3 13 -5 1366 -2 1372 2 4 325 8 718 8 l715 0 -2 -693z m1205 660 c14
-18 35 -43 47 -57 42 -50 56 -66 110 -135 30 -39 57 -72 60 -75 3 -3 46 -59
95 -124 l90 -119 0 -418 c1 -370 -1 -419 -15 -423 -8 -2 -350 -3 -760 -2
l-745 1 -1 692 0 693 546 -1 547 0 26 -32z m832 -1160 c59 -98 104 -181 100
-185 -4 -4 -108 -7 -231 -7 l-224 0 -1 25 c0 31 0 667 0 695 1 24 204 -278
356 -528z m-14220 95 l0 -287 -183 0 c-100 0 -182 1 -182 2 0 19 348 572 360
573 3 0 5 -129 5 -288z m-90 -371 l90 -1 0 -747 0 -746 -520 0 c-286 1 -528 2
-537 2 -14 1 -11 16 23 114 91 253 215 561 317 782 42 92 237 478 275 545 29
52 45 56 182 53 44 -1 121 -2 170 -2z m1675 -1 l75 0 0 -739 c0 -407 -4 -743
-8 -747 -4 -4 -361 -7 -794 -7 l-787 0 -1 737 c0 406 2 742 5 746 3 5 41 10
85 12 63 2 835 1 1425 -2z m1676 1 l21 -1 -1 -747 -1 -746 -763 -1 c-499 -1
-766 2 -771 9 -5 8 -7 1442 -2 1477 1 4 40 9 89 10 67 2 1333 1 1428 -1z
m1522 -6 c4 -3 7 -339 7 -746 0 -650 -2 -739 -15 -740 -20 -1 -1336 -1 -1375
0 l-30 1 -1 745 0 744 56 3 c110 6 1352 0 1358 -7z m1443 0 c1 -5 2 -342 3
-747 1 -652 -1 -738 -14 -739 -81 -4 -1305 -3 -1318 2 -16 6 -17 57 -18 747
l0 741 40 3 c115 8 1306 2 1307 -7z m1464 5 c21 0 21 -3 21 -745 0 -661 -2
-745 -16 -746 -20 -1 -1329 -1 -1355 0 -20 1 -20 8 -20 743 l0 743 40 5 c29 4
1144 4 1330 0z m1438 0 l27 0 0 -745 0 -745 -22 -1 c-154 -6 -1321 -2 -1325 5
-5 7 -8 1369 -4 1471 1 20 7 20 649 18 356 -1 659 -2 675 -3z m1503 1 l32 -1
0 -745 c0 -688 -1 -745 -16 -746 -60 -3 -1393 -1 -1396 2 -8 8 -8 46 -7 761 1
672 2 727 18 730 13 2 1214 1 1369 -1z m1527 0 l27 -1 0 -745 c0 -703 -1 -745
-17 -746 -24 -1 -1361 -1 -1393 0 l-25 1 0 743 0 742 45 5 c33 4 1168 4 1363
1z m1622 -1 c8 0 11 -236 11 -745 l0 -745 -36 -1 c-272 -7 -1480 -2 -1482 6
-1 6 -2 342 -3 747 l-1 737 45 3 c34 2 1393 1 1466 -2z m611 -17 c7 -10 81
-153 163 -318 199 -398 314 -669 460 -1082 12 -35 20 -66 18 -70 -4 -6 -1026
-9 -1152 -4 -20 1 -20 7 -18 738 1 406 2 741 2 745 1 10 104 13 325 11 168 -2
190 -4 202 -20z m-14394 -1567 c3 -10 2 -1375 -1 -1417 -1 -14 -69 -16 -720
-16 l-719 0 3 21 c2 12 6 39 10 61 15 101 72 397 106 550 12 50 22 97 24 105
2 8 17 69 34 135 18 66 34 129 36 140 9 37 123 414 129 423 8 14 1094 12 1098
-2z m1660 -5 c3 -14 2 -1387 -1 -1417 -1 -7 -231 -11 -791 -11 -714 0 -790 2
-791 16 -3 49 -4 1399 -1 1412 3 15 75 16 792 16 716 0 789 -1 792 -16z m1624
-707 l1 -721 -766 2 c-421 1 -768 3 -771 3 -4 2 -5 1410 -1 1433 1 4 346 6
769 5 l767 -1 1 -721z m1509 21 c0 -385 -1 -709 -3 -721 l-4 -21 -707 0 -707
1 0 721 0 722 710 -1 710 -1 1 -700z m1441 -10 c0 -390 -1 -715 -3 -721 -3 -8
-197 -11 -676 -10 l-672 1 -1 715 c0 393 1 718 2 721 2 4 306 6 676 5 l673 -1
1 -710z m1479 -10 l0 -720 -695 0 -695 0 0 721 0 721 695 -1 695 -1 0 -720z
m1445 0 l0 -722 -675 0 -675 0 -1 31 c-1 40 -1 1364 0 1392 l1 21 675 0 675 0
0 -722z m1506 -1 l2 -721 -709 0 -709 0 0 722 0 722 708 -1 707 -1 1 -721z
m1524 1 l0 -722 -715 0 c-393 0 -716 3 -716 6 -3 13 -5 1426 -2 1432 1 3 324
6 718 6 l715 0 0 -722z m1605 0 l0 -720 -757 -1 c-684 -1 -758 1 -762 15 -4
14 -1 1425 2 1427 1 1 343 1 760 0 l757 -1 0 -720z m1272 716 c5 -3 20 -40 32
-81 13 -41 29 -93 36 -115 52 -159 153 -563 201 -800 2 -11 6 -31 9 -45 13
-59 51 -276 60 -340 4 -24 8 -47 10 -51 2 -3 -345 -5 -772 -5 l-776 1 1 710
c0 391 1 715 1 721 1 8 166 11 595 11 327 0 599 -3 603 -6z"/>
<path d="M11748 7702 l-208 -2 0 -1105 0 -1105 210 0 210 0 0 325 0 325 358 1
c397 1 392 1 509 29 260 62 453 238 537 491 39 116 51 266 32 394 -18 125
-103 302 -188 396 -94 102 -231 182 -375 220 -107 28 -496 39 -1085 31z m940
-411 c118 -25 214 -101 265 -209 30 -62 32 -75 31 -167 0 -136 -24 -198 -109
-281 -51 -50 -76 -66 -131 -85 -67 -23 -79 -24 -426 -25 l-358 -1 0 391 0 391
338 -1 c207 -1 358 -6 390 -13z"/>
<path d="M25 7513 l0 -188 340 -2 c187 -1 346 -2 353 -2 9 -1 12 -191 12 -916
l0 -915 210 0 210 0 0 915 0 915 53 1 c28 0 187 0 352 0 l301 1 -1 186 0 187
-915 3 -916 2 1 -187z"/>
<path d="M2070 6595 l0 -1105 210 0 210 0 0 445 0 445 545 0 c512 0 545 -1
546 -17 0 -10 1 -210 1 -445 l0 -428 209 0 209 0 0 1105 0 1105 -209 0 -209 0
0 -422 c0 -233 -1 -443 -1 -468 l-1 -45 -542 0 -543 0 -3 468 -2 467 -210 0
-210 0 0 -1105z"/>
<path d="M4350 6595 l0 -1105 834 0 834 0 -1 205 0 205 -624 0 -623 0 0 50
c-1 28 -1 133 -1 235 0 102 0 192 1 200 0 13 74 15 600 15 473 0 600 3 601 13
1 17 1 305 0 344 l-1 32 -596 0 c-328 0 -598 2 -600 4 -4 4 -6 195 -5 417 l1
85 613 -1 c336 0 617 1 623 3 7 3 11 71 12 203 l1 200 -835 0 -834 0 0 -1105z"/>
<path d="M6300 6595 l0 -1105 210 0 210 0 0 801 0 801 23 -29 c13 -15 99 -131
192 -258 240 -326 422 -573 462 -625 30 -39 39 -45 74 -46 47 -1 32 -17 219
231 58 77 205 272 328 434 l222 293 0 -801 0 -801 210 0 210 0 0 1105 0 1105
-242 0 -243 -1 -51 -72 c-46 -65 -377 -518 -397 -542 -4 -5 -60 -81 -124 -168
-63 -87 -119 -157 -124 -155 -5 2 -51 60 -101 130 -244 333 -419 572 -488 664
-41 56 -82 111 -90 123 -14 20 -22 21 -257 21 l-243 0 0 -1105z"/>
<path d="M9000 6595 l0 -1105 835 0 835 0 0 205 0 205 -625 0 c-344 0 -625 3
-626 8 -1 10 -1 441 0 470 l1 22 603 0 602 0 -1 163 c-1 89 -2 176 -3 194 l-1
32 -597 1 c-328 0 -598 2 -601 5 -7 6 -6 480 1 491 3 5 270 9 614 8 334 0 613
1 619 4 8 2 12 64 13 203 l2 199 -836 0 -835 0 0 -1105z"/>
<path d="M14375 7613 c-21 -49 -55 -124 -76 -168 -20 -44 -76 -168 -124 -275
-48 -107 -103 -228 -121 -268 -19 -40 -34 -74 -34 -76 0 -2 -17 -42 -39 -88
-21 -45 -134 -294 -251 -553 -206 -456 -235 -521 -286 -633 -13 -29 -24 -55
-24 -57 0 -3 104 -5 230 -5 135 0 230 4 230 9 0 5 41 100 92 210 l91 201 582
0 581 0 94 -210 93 -210 229 0 c125 0 228 2 228 4 0 2 -16 39 -36 82 -20 44
-44 97 -54 119 -25 57 -96 213 -140 310 -12 28 -40 87 -61 133 -22 46 -39 85
-39 87 0 2 -13 32 -29 67 -39 86 -150 331 -288 638 -63 140 -125 278 -138 305
-47 99 -187 411 -197 438 l-10 27 -232 0 -232 0 -39 -87z m480 -856 c109 -246
195 -451 191 -454 -6 -7 -805 -8 -810 -2 -1 2 59 142 133 310 75 168 167 376
205 463 44 101 72 153 76 145 5 -8 97 -216 205 -462z"/>
<path d="M16020 6596 l0 -1106 210 0 210 0 0 370 0 370 201 0 201 0 37 -42
c57 -64 415 -473 480 -548 31 -35 73 -83 95 -107 l39 -43 248 0 c285 0 283 -1
206 80 -23 25 -114 126 -202 225 -87 99 -176 198 -196 220 -20 22 -80 89 -133
149 l-97 110 63 16 c239 62 412 232 474 465 19 74 27 270 13 345 -27 144 -91
270 -187 367 -101 102 -207 163 -361 205 -73 21 -102 22 -688 25 l-613 4 0
-1105z m1251 671 c124 -62 182 -158 185 -306 3 -174 -95 -302 -262 -342 -32
-8 -173 -12 -401 -13 l-353 -1 0 353 0 353 378 -3 378 -3 75 -38z"/>
<path d="M18120 6595 l0 -1105 210 0 210 0 0 488 1 487 102 -106 c124 -129
402 -421 447 -469 18 -19 82 -87 143 -150 60 -63 139 -145 175 -182 l64 -68
259 0 c205 0 259 3 259 13 0 14 -25 41 -349 376 -113 117 -219 228 -235 245
-16 17 -129 134 -250 260 -122 125 -224 233 -228 239 -3 6 15 34 42 61 26 28
63 67 80 86 18 19 85 91 149 159 64 68 131 140 150 160 275 294 417 446 488
520 40 42 73 79 73 84 0 4 -118 7 -263 7 l-263 0 -33 -37 c-19 -21 -70 -78
-115 -127 -44 -49 -88 -97 -97 -107 -9 -11 -52 -58 -95 -106 -44 -47 -86 -94
-94 -103 -21 -24 -149 -166 -174 -193 -32 -35 -167 -184 -203 -226 l-33 -36 0
468 0 467 -210 0 -210 0 0 -1105z"/>
<path d="M17127 4694 c-1 -1 -24 -4 -52 -8 -142 -17 -300 -85 -380 -163 -95
-94 -131 -193 -122 -336 16 -257 193 -390 586 -442 219 -29 309 -57 370 -115
76 -74 75 -195 -3 -273 -110 -110 -390 -128 -582 -38 -68 32 -153 111 -174
161 -7 17 -17 30 -22 30 -5 0 -63 -28 -129 -62 -134 -71 -130 -62 -74 -157
125 -211 339 -303 685 -296 172 3 263 21 379 76 111 51 183 119 231 214 38 75
41 89 46 199 6 149 -29 251 -121 342 -75 76 -227 142 -385 167 -63 11 -108 18
-145 22 -22 3 -60 8 -84 11 -144 18 -263 85 -277 158 -18 100 42 181 166 222
57 19 223 26 286 11 97 -22 191 -73 243 -132 l29 -34 120 61 121 62 -21 40
c-12 23 -48 68 -82 101 -91 89 -225 149 -384 171 -37 5 -220 12 -225 8z"/>
<path d="M10305 4663 c-211 -32 -375 -111 -496 -240 -100 -105 -160 -215 -200
-363 -33 -122 -33 -348 -1 -468 102 -379 392 -592 812 -595 82 -1 171 7 228
19 57 12 179 59 237 92 59 33 164 111 165 123 0 6 -199 209 -205 209 -2 0 -10
-6 -18 -14 -25 -26 -121 -82 -177 -104 -79 -31 -153 -43 -250 -38 -177 8 -308
68 -398 182 -78 98 -112 193 -118 335 -9 226 100 429 277 516 198 98 456 77
622 -50 l47 -37 82 77 c119 113 120 114 100 137 -53 59 -205 149 -313 184
-112 37 -281 52 -394 35z"/>
<path d="M13753 4656 c-137 -26 -235 -67 -333 -139 -222 -164 -341 -432 -327
-737 18 -383 236 -670 573 -754 98 -25 115 -27 230 -30 244 -7 451 60 599 196
136 125 222 292 254 493 18 108 6 298 -23 399 -92 309 -303 506 -615 572 -62
13 -288 13 -358 0z m277 -270 c243 -33 415 -244 425 -521 11 -291 -117 -498
-354 -571 -131 -40 -329 -23 -445 39 -116 62 -210 189 -246 332 -20 78 -21
230 -4 310 66 296 305 454 624 411z"/>
<path d="M2660 4368 c-68 -150 -138 -304 -155 -343 -73 -159 -85 -186 -85
-190 0 -3 -19 -44 -41 -92 -75 -160 -319 -702 -319 -709 0 -2 74 -4 165 -4
162 0 166 0 174 23 11 27 108 236 120 257 7 13 68 15 434 18 l426 2 7 -22 c6
-20 43 -103 106 -235 l20 -43 164 0 c90 0 164 2 164 4 0 6 -51 121 -120 271
-18 39 -58 129 -90 200 -32 72 -71 159 -87 195 -17 36 -47 103 -68 150 -21 47
-60 132 -86 189 -27 57 -49 105 -49 106 0 2 -36 83 -81 182 -44 98 -89 198
-101 223 -45 101 -20 90 -208 90 l-167 0 -123 -272z m450 -434 c73 -165 134
-304 137 -310 3 -9 -75 -12 -296 -12 l-300 0 9 22 c4 12 17 42 28 66 51 110
242 552 242 559 0 4 6 13 13 20 10 10 14 6 24 -17 7 -16 71 -164 143 -328z"/>
<path d="M3590 4503 l0 -138 257 0 258 -1 0 -667 0 -667 152 0 153 0 2 668 3
667 245 1 c135 1 250 2 255 3 6 0 10 52 10 133 l-1 133 -667 3 -667 2 0 -137z"/>
<path d="M4980 4502 l0 -138 257 1 258 0 0 -668 -1 -667 153 0 153 0 2 668 3
667 254 0 254 0 1 125 c1 69 0 131 -2 138 -3 9 -146 12 -668 12 l-664 0 0
-138z"/>
<path d="M6465 3836 l0 -806 152 0 153 0 0 269 0 269 144 0 c80 -1 148 -4 153
-7 5 -3 89 -98 188 -211 99 -113 197 -224 218 -246 21 -23 44 -49 50 -58 11
-15 46 -16 325 -14 l313 3 67 147 67 147 425 0 425 1 66 -148 66 -147 166 -3
c92 -1 167 0 167 3 0 5 -486 1086 -551 1223 -21 46 -39 86 -39 88 0 2 -17 41
-38 86 -21 46 -51 111 -67 146 l-29 62 -166 0 -167 0 -28 -62 c-15 -35 -41
-91 -56 -125 -41 -90 -388 -857 -476 -1053 -41 -91 -88 -195 -105 -232 l-31
-66 -23 25 c-12 13 -51 56 -86 95 -35 39 -67 76 -73 82 -207 229 -257 289
-244 297 8 5 20 9 27 9 35 0 166 73 215 119 96 91 137 191 142 351 9 260 -115
440 -362 527 l-78 28 -455 3 -455 3 0 -805z m889 500 c66 -28 107 -66 133
-122 47 -103 29 -217 -46 -295 -70 -72 -100 -78 -411 -79 l-260 -1 0 254 c0
140 3 256 6 259 3 4 125 5 272 4 226 -2 273 -5 306 -20z m1515 -379 c79 -182
146 -335 148 -339 3 -7 -577 -9 -589 -2 -3 2 2 21 11 42 10 20 76 171 147 334
71 164 131 298 134 298 3 0 70 -150 149 -333z"/>
<path d="M11070 4502 l0 -138 255 1 c161 0 256 -4 258 -10 2 -5 3 -306 3 -667
l-1 -658 152 0 153 0 2 668 3 667 255 0 254 0 0 135 1 135 -668 3 -667 2 0
-138z"/>
<path d="M12570 4580 c0 -33 -1 -364 -1 -735 0 -371 1 -706 1 -745 l0 -70 150
0 150 0 0 805 0 805 -150 0 -150 0 0 -60z"/>
<path d="M14975 3835 l0 -805 152 0 153 0 2 539 3 539 127 -162 c70 -88 136
-172 147 -186 11 -14 118 -149 237 -300 119 -151 244 -310 277 -352 l61 -78
96 0 95 0 0 805 0 805 -152 0 -153 0 -2 -496 -3 -495 -350 438 c-192 241 -354
443 -360 449 -5 6 -26 31 -45 57 l-35 46 -125 1 -125 0 0 -805z"/>
</g>
</svg>
